<svg width="488" height="106" viewBox="0 0 488 106" fill="none" xmlns="http://www.w3.org/2000/svg">
<path d="M223.761 69.9232V30H210V31.1235C213.313 31.1235 213.239 36.0768 213.239 36.0768V76H227V74.8663C223.687 74.8663 223.761 69.9232 223.761 69.9232Z" fill="black"/>
<path d="M59.1148 70.4716L31.5074 0H29.619L0 75.9899H1.83708L11.3303 51.2539H37.9525L47.5074 76H64V74.8761C61.27 74.866 59.6895 71.8689 59.1148 70.4716ZM11.9051 49.7959L24.6107 16.6864L37.4086 49.7959H11.9051Z" fill="black"/>
<path d="M99.8509 30.9894C98.3277 29.0684 95.8343 28.0739 92.3707 28.0058C90.8535 27.9602 89.3405 28.1852 87.9055 28.6699C86.7241 29.1224 85.6565 29.8195 84.7757 30.7135C83.342 32.2797 82.2487 34.1154 81.5624 36.1087V29.9778H68V31.1018C70.556 31.1018 71.1298 34.1673 71.1298 35.5773V76H84.7757V74.8658C81.5729 74.8658 81.5729 69.9202 81.5729 69.9202V45.6523C81.5729 40.8839 82.2684 37.0692 83.6594 34.2081C85.0157 31.4833 86.8031 30.1039 89.0218 30.0698C89.6078 30.0425 90.1898 30.177 90.7015 30.4581C90.7015 30.4581 94.2068 32.2769 92.8819 35.2401C92.8819 35.2401 90.9101 38.7858 94.8849 40.0835C95.4436 40.2583 96.0214 40.368 96.6063 40.4105C97.3503 40.5142 98.1083 40.4592 98.8286 40.2493C99.5488 40.0395 100.214 39.6796 100.779 39.1945C101.552 38.4046 101.989 37.3559 102 36.2619C101.912 34.3172 101.154 32.459 99.8509 30.9894Z" fill="black"/>
<path d="M196.952 70.2286V48.6416C196.952 46.0495 196.733 43.4619 196.297 40.906C195.723 38.3113 194.546 35.8846 192.86 33.8183C190.18 30.3622 185.833 28.57 179.818 28.4418C178.157 28.4109 176.508 28.7284 174.98 29.3733C173.591 29.9657 172.336 30.8263 171.287 31.9046C170.344 32.8196 169.548 33.8712 168.924 35.0232C168.338 36.1119 167.819 37.2344 167.369 38.3847V0H154V1.11378C157.273 1.11378 157.12 6.03466 157.12 6.03466V76H167.349V46.4343C167.359 42.6355 168.273 38.8925 170.019 35.5092C170.905 33.8666 172.137 32.4305 173.63 31.2971C175.169 30.2717 177.003 29.7673 178.857 29.8593C182.184 29.9268 184.346 31.2971 185.342 33.9702C186.337 36.6432 186.791 40.4233 186.702 45.3104V76H200V74.8761C197.248 74.8761 196.952 71.4234 196.952 70.2286Z" fill="black"/>
<path d="M277.503 30L263.969 64.8024L248.959 30H235V31.1545C237.165 31.1545 238.662 33.0371 239.38 34.7325L258.446 79H259.903L279 30H277.503Z" fill="black"/>
<path d="M471.25 52.4733C467.148 52.9664 463.016 53.1708 458.885 53.085V54.1044H486.422C486.863 52.4854 487.053 50.8074 486.987 49.1296C486.987 44.6237 484.968 37.8241 481.536 34.4804C479.85 32.7713 477.824 31.4439 475.591 30.5862H475.439C474.251 30.1245 473.02 29.783 471.765 29.5668C463.003 27.8031 457.048 30.7187 457.048 30.7187C452.235 32.5967 448.179 36.0401 445.52 40.5052C443.111 44.5456 441.893 49.1958 442.007 53.9107C442.007 61.5667 444.38 67.7036 449.073 72.1993C453.668 76.6202 459.787 79.0592 466.133 78.9989C473.34 78.9989 481.112 75.9406 485.312 70.2828V69.7017C483.288 71.8302 480.859 73.5221 478.169 74.6751C475.48 75.8281 472.587 76.4181 469.666 76.4095C464.356 76.4095 461.176 73.8712 457.664 69.7527C454.151 65.6342 454.494 60.5778 454.494 53.5641C454.494 40.4033 455.968 33.8178 460.995 30.9736C462.606 30.1429 464.394 29.7196 466.203 29.7401C468.415 29.5833 470.607 30.2546 472.361 31.626C475.389 34.5926 476.186 40.4135 476.247 46.0204C475.984 50.2714 476.267 51.3214 471.25 52.4733Z" fill="black"/>
<path d="M319.89 10C316.088 18.0594 308 24 308 24H312.813C326.896 17.9604 330 10.0495 330 10.0495L319.89 10Z" fill="black"/>
<path d="M325.145 34.7296C322.171 31.6112 317.958 29.7344 313.085 28.7275C308.77 27.9601 304.363 27.7988 300 28.2485V29.226C303.492 29.023 306.996 29.1343 310.466 29.5584C312.259 29.8102 313.951 30.5152 315.369 31.6015C319.115 34.7687 319.197 39.4219 319.359 40.2137C319.564 41.7859 319.645 43.3708 319.603 44.9548C319.318 48.9627 319.461 50.7125 314.527 51.4457C310.403 51.9027 306.252 52.0954 302.101 52.0225V53H329.409C329.858 51.4985 330.053 49.9374 329.988 48.3762C329.978 44.1532 328.577 37.8382 325.145 34.7296Z" fill="black"/>
<path d="M328 69.4516C325.944 71.6387 323.476 73.3768 320.745 74.561C318.014 75.7452 315.077 76.3509 312.111 76.3416C306.722 76.3416 303.489 73.7369 299.927 69.5041C296.366 65.2714 296.704 60.0514 296.704 52.8358C296.704 41.1249 297.823 34.466 301.436 31H295.842C294.42 31.8517 293.094 32.8627 291.89 34.0144C290.231 35.6141 288.779 37.4249 287.569 39.4024C285.127 43.5604 283.892 48.3434 284.007 53.1929C284.007 61.0702 286.42 67.372 291.192 72.0039C295.859 76.5516 302.074 79.0606 308.518 78.9989C315.837 78.9989 323.73 75.848 327.969 70.0293L328 69.4516Z" fill="black"/>
<path d="M433.149 71.0386L413.623 45.7255L432.494 30.396H430.421L406.084 49.8465V0H393V1.11378C396.211 1.11378 396.07 6.01439 396.07 6.01439V76H406.084V52.0639L424.513 76H438V74.8761C436.259 74.866 434.608 72.8713 433.149 71.0386Z" fill="black"/>
<path d="M383.162 44.4662C381.984 41.6281 380.336 38.9972 378.283 36.6783C376.265 34.4018 373.826 32.5131 371.094 31.1097C368.382 29.7166 365.36 28.9923 362.293 29.0003C360.323 28.9864 358.379 29.4321 356.624 30.3C354.969 31.1141 353.507 32.2547 352.331 33.6491V30.9598H339V32.0595C342.235 32.0595 342.081 36.8982 342.081 36.8982V106H352.351V72.1489C353.631 73.6564 355.246 74.86 357.075 75.668C358.975 76.5583 361.057 77.0197 363.166 77.0177C366.185 77.0374 369.164 76.3518 371.854 75.0182C374.514 73.7076 376.875 71.8885 378.797 69.6696C380.756 67.4012 382.299 64.8206 383.357 62.0416C384.442 59.2598 384.998 56.3094 385 53.3339C384.981 50.2903 384.356 47.279 383.162 44.4662ZM372.08 66.2605C371.485 69.5396 370.437 71.899 368.999 73.3386C368.323 74.1445 367.47 74.7935 366.504 75.2381C365.431 75.5988 364.299 75.7615 363.166 75.718C360.961 75.6793 358.798 75.1238 356.86 74.0984C354.747 73.0657 353.13 71.2729 352.351 69.0997V35.7085C353.287 33.9665 354.774 32.5643 356.593 31.7096C358.358 30.8056 360.319 30.3225 362.313 30.3C363.588 30.2795 364.858 30.4446 366.082 30.7898C367.218 31.1388 368.23 31.794 368.999 32.6793C370.478 34.119 371.526 36.5783 372.08 40.0374C372.748 44.4387 373.05 48.8853 372.984 53.3339C373.07 57.6587 372.781 61.9829 372.121 66.2605H372.08Z" fill="black"/>
<path d="M143.963 71.0383C143.15 71.9342 135.268 80.2727 125.679 75.4977C125.415 75.3449 125.151 75.1922 124.887 75.009C123.265 73.8186 121.907 72.3051 120.897 70.5636C119.886 68.8221 119.246 66.8901 119.016 64.8888C119.016 64.7259 118.965 64.5732 118.945 64.4205C118.602 61.0617 118.443 57.6867 118.467 54.3105C118.393 45.7854 119.171 39.5783 120.803 35.689C121.433 33.9708 122.598 32.5015 124.125 31.4985C125.653 30.4955 127.462 30.0121 129.285 30.1199C130.61 30.0258 131.923 30.4165 132.982 31.2195C133.679 31.655 134.2 32.3215 134.456 33.1029C134.713 33.8844 134.687 34.7312 134.384 35.4956C134.384 35.4956 132.028 39.9346 136.944 41.6044C137.766 41.8429 138.617 41.9663 139.473 41.9709C140.724 42.0402 141.974 41.8243 143.13 41.3396C143.723 41.0876 144.226 40.6602 144.571 40.1145C144.916 39.5688 145.086 38.9307 145.06 38.2853C145.06 36.3373 143.834 34.3519 141.383 32.3293C138.931 30.3066 135.051 29.1968 129.742 29C127.15 29.0207 124.582 29.4962 122.154 30.405C122.154 30.405 105.719 35.9131 106.004 54.1375C106.004 54.1375 105.638 71.8223 121.453 77.5543L121.657 77.6357C124.065 78.5217 126.608 78.9833 129.173 79C137.36 79 143.292 74.6832 147 67.6887V66.5076C146.182 68.1401 145.162 69.6624 143.963 71.0383Z" fill="black"/>
</svg>
