<svg id="Layer_1" data-name="Layer 1" xmlns="http://www.w3.org/2000/svg" viewBox="0 0 147 28.58"><defs><style>.cls-1{fill:#231f20;}</style></defs><title>NUNUNU_LOGO-for site</title><path class="cls-1" d="M132.5,2.41V17a4.4,4.4,0,1,1-8.81,0V2.41h-5.44V17a9.84,9.84,0,1,0,19.68,0V2.41ZM86.12,17a4.4,4.4,0,1,1-8.81,0V2.41H71.88V17a9.84,9.84,0,0,0,19.68,0V2.41H86.12ZM104.91,1.5a9.85,9.85,0,0,0-9.84,9.84V25.92h5.44V11.34a4.4,4.4,0,1,1,8.81,0V25.92h5.44V11.34a9.85,9.85,0,0,0-9.84-9.84m-92.75,0a9.85,9.85,0,0,0-9.84,9.84V25.92H7.75V11.34a4.4,4.4,0,1,1,8.81,0V25.92H22V11.34A9.85,9.85,0,0,0,12.16,1.5m46.38,0a9.85,9.85,0,0,0-9.84,9.84V25.92h5.44V11.34a4.4,4.4,0,1,1,8.81,0V25.92h5.44V11.34A9.85,9.85,0,0,0,58.53,1.5m-18.78.91h5.44V17A9.84,9.84,0,1,1,25.5,17V2.41h5.44V17a4.4,4.4,0,1,0,8.81,0Z"/><path class="cls-1" d="M143,7.86a2.69,2.69,0,1,1,2.69-2.69A2.69,2.69,0,0,1,143,7.86Zm0-5a2.32,2.32,0,1,0,2.32,2.32A2.32,2.32,0,0,0,143,2.85Z"/><path class="cls-1" d="M141.77,6.63V3.68h1.33a1.81,1.81,0,0,1,.61.08A.66.66,0,0,1,144,4a.82.82,0,0,1,.13.44A.73.73,0,0,1,144,5a1.06,1.06,0,0,1-.64.27,1,1,0,0,1,.24.15,2,2,0,0,1,.33.39l.52.8h-.5l-.4-.61q-.17-.27-.29-.41a.9.9,0,0,0-.2-.2.61.61,0,0,0-.18-.08h-.68V6.63Zm.4-1.65H143a1.31,1.31,0,0,0,.43-.06.45.45,0,0,0,.23-.18.47.47,0,0,0,.08-.26.43.43,0,0,0-.15-.34.73.73,0,0,0-.49-.13h-1Z"/></svg>