<svg xmlns="http://www.w3.org/2000/svg" viewBox="0 0 483.95 118.89"><defs><style>.cls-1{fill:#0d250d;}</style></defs><g id="레이어_2" data-name="레이어 2"><g id="Layer_1" data-name="Layer 1"><path class="cls-1" d="M43.46,0C15.23,0,0,22.85,0,44.35,0,68.84,18.36,87.3,42.7,87.3c25,0,42.44-18.44,42.44-44.85C85.14,18.25,67.22,0,43.46,0Zm1.27,83.47c-17.68,0-30.51-19-30.51-42.55,0-24.33,13.41-37.22,26.7-37.22C56,3.7,71.18,18.16,71.18,46,71.18,68.21,61.29,83.47,44.73,83.47Z"/><path class="cls-1" d="M260.62,28a85.18,85.18,0,0,1-16.79,1.89,26.58,26.58,0,0,0-12.33-3.17c-9.7,0-23.37,6.74-23.37,21.72a18.61,18.61,0,0,0,10.64,17.2,26.61,26.61,0,0,1-10.7,7.63l-.33.12v.35a11.93,11.93,0,0,0,1.61,5.73,16.89,16.89,0,0,0,8.9,6.79,115.83,115.83,0,0,0-9.72,8.6,10.53,10.53,0,0,0-3.33,7.62c.27,7.94,8.38,16.37,22.87,16.37,17,0,33-12.72,33-26.17C261.11,79,249.17,77,242.05,77c-2,0-4.34,0-6.72.06s-5.09.07-7.51.07c-5.45,0-7.38-2.33-7.38-4.33,0-1.23.87-3.22,3.24-5.33a28.08,28.08,0,0,0,6.55.75c11,0,22.87-6.52,22.87-20.84a20.22,20.22,0,0,0-3.17-11l1.38.13c2,.2,4.2.42,5.49.42h.14l.12-.07c2-1.21,4.12-4.89,4.91-7l.09-.24L261,28Zm-27.84,85.24c-9.43,0-16.54-7-16.54-13.7,0-3.29,2.16-7,5.92-10,2.27-1.88,5.14-2.55,11-2.55,5.46,0,9.72.27,12.76,1.61,3.37,1.44,5.29,4.65,5.29,8.82C251.21,105.84,244,113.28,232.78,113.28Zm8.77-64.92c0,10.53-5.2,15.53-10.05,15.75-6.81,0-11.57-7.8-11.57-17.53,0-10.2,5.17-15.76,10.3-15.76C236.9,30.82,241.55,38.62,241.55,48.36Z"/><path class="cls-1" d="M359,47.09c0-11-9.2-20.33-20.08-20.33-6.95,0-14,3.46-19.43,9.49C314.08,42,311,50.3,311,59c0,13.92,8.79,28,25.58,28,1.93,0,12-.61,21.63-12.6l.23-.29-2.59-3.73-.42.39c-4.68,4.3-9.43,6.39-14.5,6.39a17.77,17.77,0,0,1-12.61-5.32c-4.06-4.16-6.16-11.27-6.08-18.81,14.71-.5,31.05-.68,33.78-1.22C358.35,51.21,358.82,49.82,359,47.09ZM335.81,32.62a10.32,10.32,0,0,1,7.53,3.11A12.92,12.92,0,0,1,346.82,45c0,1.52-.39,2.05-2.59,2.05-7.32.38-14.4.39-21.25.39C324.94,37.22,330.8,32.62,335.81,32.62Z"/><path class="cls-1" d="M483.5,81.27c-7.24-.75-7.79-1-7.79-9.42V47.37c0-12.71-6.62-20.6-17.26-20.6-4.26,0-7.93,2-11,3.95-2.73,1.78-5.35,3.55-8,5.37v-5L435,28a79.84,79.84,0,0,1-14.15,3.59l-.42.07v4.21l.42.07c6.73,1.12,7.43,1.24,7.43,9.42V71.85c0,8.29-.62,8.55-8.82,9.42l-.45,0v4.57h28.84V81.31l-.46,0c-7.32-.75-7.92-.81-7.92-9.42V41.93c3.33-3,8.36-6.42,13.8-6.42,7.44,0,11.22,4.9,11.22,14.57V71.34c0,8.44-.59,9.18-7.8,9.93l-.45,0v4.58H484V81.31Z"/><path class="cls-1" d="M150.84,77.85c-4.5-.23-5.38-.82-5.38-7V32.6l-5.73-4c-3.91.56-9.45,1.23-14.74,1.48l-.48,0v4.23l4.49.56c4.1.6,5.42,1.35,5.42,7.89v29.4C130.32,76,125.75,78,121.2,78c-4.14,0-11.07-1.8-11.07-13.86V46.83c0-6,0-10.73.14-14.45l-5.4-3.78c-4.17.63-9.28,1.29-13.06,1.46l-.48,0v4.2l4,.71c2.89.58,3.8,1.08,3.8,7.77V67.42C99.09,85.08,110.55,87,115.48,87c7,0,12.56-3.95,18.94-9.23v5l4.49,3.14a135.87,135.87,0,0,1,15.53-3.36l.43-.06V78Z"/><path class="cls-1" d="M197,26.76c-6.06,0-11.21,5.91-15.86,12.65V32.29l-5.61-3.92a74.54,74.54,0,0,1-13.15,3.29l-.43.07v4.1l.45.05c7.12.86,7.54.91,7.54,9.29V72c0,8-.47,8.53-8.43,9.29l-.46,0v4.58h30.65V81.3l-.46,0c-9.63-.75-10.1-1.19-10.1-9.42V47.73c2.89-6.64,7.54-10.17,9.8-10.17,1.8,0,3.08.81,4.84,2.49l6.13-4.28V28.05A9.06,9.06,0,0,0,197,26.76Z"/><path class="cls-1" d="M304.17,26.76c-6.05,0-11.2,5.91-15.86,12.65V32.29l-5.6-3.92a74.54,74.54,0,0,1-13.15,3.29l-.43.07v4.1l.45.05c7.12.86,7.54.91,7.54,9.29V72c0,8-.47,8.53-8.43,9.29l-.46,0v4.58h30.65V81.3l-.47,0c-9.62-.75-10.1-1.19-10.1-9.42V47.73c2.9-6.64,7.55-10.17,9.81-10.17,1.8,0,3.08.81,4.84,2.49l6.12-4.28V28.05A9,9,0,0,0,304.17,26.76Z"/><path class="cls-1" d="M413,47.09c0-11-9.19-20.33-20.07-20.33-6.95,0-14,3.46-19.43,9.49C368.1,42,365,50.3,365,59c0,13.92,8.79,28,25.58,28,1.92,0,12-.61,21.62-12.6l.24-.29-2.59-3.73-.43.39c-4.68,4.3-9.42,6.39-14.5,6.39a17.75,17.75,0,0,1-12.6-5.32c-4.07-4.16-6.17-11.27-6.09-18.81,14.71-.5,31.06-.68,33.78-1.22C412.36,51.21,412.84,49.82,413,47.09ZM389.83,32.62a10.32,10.32,0,0,1,7.53,3.11A12.92,12.92,0,0,1,400.84,45c0,1.52-.39,2.05-2.59,2.05-7.32.38-14.4.39-21.25.39C379,37.22,384.81,32.62,389.83,32.62Z"/></g></g></svg>